<mxfile host="65bd71144e">
    <diagram id="R47YfedOQA6HZ_0K51o0" name="Page-1">
        <mxGraphModel dx="890" dy="622" grid="1" gridSize="10" guides="1" tooltips="1" connect="1" arrows="1" fold="1" page="1" pageScale="1" pageWidth="850" pageHeight="1100" math="0" shadow="0">
            <root>
                <mxCell id="0"/>
                <mxCell id="1" parent="0"/>
                <mxCell id="9" value="id&lt;br&gt;nome&lt;br&gt;valor" style="edgeStyle=none;html=1;" parent="1" source="3" edge="1">
                    <mxGeometry x="1" y="50" relative="1" as="geometry">
                        <mxPoint x="360" y="159.99999999999994" as="targetPoint"/>
                        <mxPoint x="-50" y="50" as="offset"/>
                    </mxGeometry>
                </mxCell>
                <mxCell id="3" value="Frete&lt;br&gt;microservice" style="rounded=0;whiteSpace=wrap;html=1;" parent="1" vertex="1">
                    <mxGeometry x="300" y="50" width="120" height="60" as="geometry"/>
                </mxCell>
            </root>
        </mxGraphModel>
    </diagram>
</mxfile>